<?xml version="1.0" standalone="no"?>
<!DOCTYPE svg PUBLIC "-//W3C//DTD SVG 20010904//EN"
 "http://www.w3.org/TR/2001/REC-SVG-20010904/DTD/svg10.dtd">
<svg version="1.0" xmlns="http://www.w3.org/2000/svg"
 width="1024.000000pt" height="1024.000000pt" viewBox="0 0 1024.000000 1024.000000"
 preserveAspectRatio="xMidYMid meet">
<metadata>
Created by potrace 1.11, written by Peter Selinger 2001-2013
</metadata>
<g transform="translate(0.000000,1024.000000) scale(0.100000,-0.100000)"
fill="#000000" stroke="none">
<path d="M2923 10225 c-156 -42 -276 -152 -334 -305 -13 -35 -115 -773 -344
-2488 -179 -1341 -325 -2458 -325 -2483 0 -158 113 -340 258 -413 115 -58 59
-56 1379 -56 667 0 1213 -4 1213 -8 0 -8 -197 -840 -676 -2862 -265 -1115
-254 -1065 -254 -1135 0 -212 153 -404 365 -460 162 -42 325 5 450 130 54 54
228 350 1839 3135 979 1691 1788 3098 1799 3125 27 72 33 186 13 262 -42 164
-144 279 -309 346 -52 22 -52 22 -1258 27 l-1205 5 269 820 c148 451 341 1040
429 1309 111 338 162 509 165 550 18 227 -138 442 -362 501 -52 13 -243 15
-1560 14 -1258 0 -1508 -3 -1552 -14z"/>
</g>
</svg>
